<?xml version="1.0" encoding="UTF-8"?>
<svg xmlns="http://www.w3.org/2000/svg" version="1.1" width="80mm" height="40.188mm" viewBox="0 0 1063 534">
  <g transform="translate(-21025,-14316)">
    <path fill="#1B2D42" fill-rule="evenodd" d="M 21365,14847 L 21642,14633 C 21645,14631 21647,14630 21650,14629 21653,14627 21657,14627 21660,14627 21673,14627 21684,14635 21687,14647 21688,14649 21689,14652 21689,14654 L 21689,14843 C 21689,14848 21694,14849 21697,14847 L 22082,14551 C 22083,14550 22085,14548 22086,14546 22088,14543 22088,14540 22088,14536 L 22088,14536 22088,14322 C 22088,14317 22083,14316 22080,14318 L 21869,14481 21869,14481 21801,14532 21800,14533 21798,14534 C 21794,14537 21789,14538 21784,14538 21769,14538 21757,14527 21756,14513 L 21756,14322 21756,14322 C 21756,14317 21750,14316 21747,14318 L 21470,14532 21468,14533 21466,14534 C 21462,14537 21457,14538 21452,14538 21438,14538 21426,14527 21424,14513 L 21424,14513 21424,14321 C 21424,14317 21419,14316 21416,14318 L 21031,14613 C 21026,14617 21025,14622 21025,14629 L 21025,14843 C 21025,14848 21029,14850 21033,14847 L 21311,14633 C 21313,14631 21315,14630 21319,14629 21322,14627 21325,14627 21329,14627 21341,14627 21353,14635 21356,14647 21356,14649 21357,14652 21357,14654 L 21357,14843 21357,14843 C 21357,14848 21362,14850 21365,14847 Z "/>
  </g>
</svg>
